# xmcd
#
# Track frame offsets: 
#        150
#        15196
#        31488
#        45006
#        60306
#        69894
#        83796
#        96214
#        110711
#        124135
#        134693
#        148786
#        162275
#
# Disc length: 2576 seconds
#
# Revision: 0
# Processed by: cddbd v1.5.2PL0 Copyright (c) Steve Scherf et al.
# Submitted via: ExactAudioCopy v0.95b3
#
DISCID=a40a0e0d
DTITLE=$600 Boots - Mandy Marie and The Cool Hand Lukes
DYEAR=2009
DGENRE=Alt. Country
TTITLE0=Dresser Drawer Bible
TTITLE1=The Girl Is Just Gone
TTITLE2=$600 Boots
TTITLE3=Thrift Shop
TTITLE4=Dave Dudley
TTITLE5=This Old Tattoo
TTITLE6=Harold's Super Service
TTITLE7=I Am The Other Woman
TTITLE8=(I'm Gonna) Drink You Out Of My Mind 
TTITLE9=Leave Me Baby, Leave Me Be
TTITLE10=She's Got The White Line Fever
TTITLE11=There's Nothing Left To Do
TTITLE12=Mule Skinner Blues (Hidden Track)
EXTD=
EXTT0=
EXTT1=
EXTT2=
EXTT3=
EXTT4=
EXTT5=
EXTT6=
EXTT7=
EXTT8=
EXTT9=
EXTT10=
EXTT11=
EXTT12=
PLAYORDER=
